HIERARCHY
ROOT Hips
{
	OFFSET 0.000000 0.000000 0.000000 
	CHANNELS 6 Xposition Yposition Zposition Zrotation Yrotation Xrotation
	JOINT LeftUpLeg
	{
		OFFSET 1.363060 -1.794630 0.839290 
		CHANNELS 3 Zrotation Yrotation Xrotation
		JOINT LeftLeg
		{
			OFFSET 2.448110 -6.726130 0.000000 
			CHANNELS 3 Zrotation Yrotation Xrotation
			JOINT LeftFoot
			{
				OFFSET 2.562200 -7.039590 0.000000 
				CHANNELS 3 Zrotation Yrotation Xrotation
				JOINT LeftToeBase
				{
					OFFSET 0.157640 -0.433110 2.322550 
					CHANNELS 3 Zrotation Yrotation Xrotation
					End Site
					{
						OFFSET 0.000000 0.000000 0.000000 
					}
				}
			}
		}
	}
	JOINT RightUpLeg
	{
		OFFSET -1.305520 -1.794630 0.839290 
		CHANNELS 3 Zrotation Yrotation Xrotation
		JOINT RightLeg
		{
			OFFSET -2.542530 -6.985550 0.000000 
			CHANNELS 3 Zrotation Yrotation Xrotation
			JOINT RightFoot
			{
				OFFSET -2.568260 -7.056230 0.000000 
				CHANNELS 3 Zrotation Yrotation Xrotation
				JOINT RightToeBase
				{
					OFFSET -0.164730 -0.452590 2.363150 
					CHANNELS 3 Zrotation Yrotation Xrotation
					End Site
					{
						OFFSET 0.000000 0.000000 0.000000 
					}
				}
			}
		}
	}
	JOINT Spine
	{
		OFFSET 0.028270 2.035590 -0.193380 
		CHANNELS 3 Zrotation Yrotation Xrotation
		JOINT Spine1
		{
			OFFSET 0.056720 2.048850 -0.042750 
			CHANNELS 3 Zrotation Yrotation Xrotation
			JOINT Neck1
			{
				OFFSET -0.054170 1.746240 0.172020 
				CHANNELS 3 Zrotation Yrotation Xrotation
				JOINT Head
				{
					OFFSET 0.104070 1.761360 -0.123970 
					CHANNELS 3 Zrotation Yrotation Xrotation
					End Site
					{
						OFFSET 0.000000 0.000000 0.000000 
					}
				}
			}
			JOINT LeftArm
			{
				OFFSET 3.362410 1.200890 -0.311210 
				CHANNELS 3 Zrotation Yrotation Xrotation
				JOINT LeftForeArm
				{
					OFFSET 4.983000 -0.000000 -0.000000 
					CHANNELS 3 Zrotation Yrotation Xrotation
					JOINT LeftHand
					{
						OFFSET 3.483560 -0.000000 -0.000000 
						CHANNELS 3 Zrotation Yrotation Xrotation
						JOINT LeftHandIndex1
						{
							OFFSET 0.715260 -0.000000 -0.000000 
							CHANNELS 3 Zrotation Yrotation Xrotation
							End Site
							{
								OFFSET 0.000000 0.000000 0.000000 
							}
						}
					}
				}
			}
			JOINT RightArm
			{
				OFFSET -3.136600 1.374050 -0.404650 
				CHANNELS 3 Zrotation Yrotation Xrotation
				JOINT RightForeArm
				{
					OFFSET -5.241900 -0.000000 -0.000000 
					CHANNELS 3 Zrotation Yrotation Xrotation
					JOINT RightHand
					{
						OFFSET -3.444170 -0.000000 -0.000000 
						CHANNELS 3 Zrotation Yrotation Xrotation
						JOINT RightHandIndex1
						{
							OFFSET -0.622530 -0.000000 -0.000000 
							CHANNELS 3 Zrotation Yrotation Xrotation
							End Site
							{
								OFFSET 0.000000 0.000000 0.000000 
							}
						}
					}
				}
			}
		}
	}
}
MOTION
Frames: 13
Frame Time: 0.041667
0.193649 19.258030 -24.871012 177.167583 20.707143 179.730952 -0.392737 -1.837969 -22.726482 -0.927853 9.164150 23.463422 3.156386 5.158242 34.050485 0.001700 -0.269800 -0.741200 3.185850 -4.406856 -19.442730 -1.622962 -10.388622 27.977417 3.908824 -15.476869 18.526003 -2.506100 9.849000 -28.489000 0.821695 -0.496781 -4.118566 2.047188 -0.041649 -4.683057 1.152337 5.433102 7.968288 -2.176700 2.534200 8.120200 -85.733153 18.179083 0.660668 18.632108 -31.438749 -9.099605 -0.850235 -0.669892 14.280486 -7.125000 0.000000 0.000000 80.810520 -18.999374 -9.234364 -18.455179 29.710515 -8.564860 2.313005 2.712004 -5.564189 7.125000 0.000000 0.000000 
0.204758 19.273496 -24.916430 177.225594 21.035164 -179.966365 -0.305688 -1.815889 -22.755378 -0.888795 9.178730 23.414459 3.007661 5.505760 33.901375 0.001800 -0.274600 -0.754500 3.133285 -4.001512 -19.183574 -1.456478 -10.197229 27.353188 3.971557 -15.631415 18.556015 -2.497200 9.832900 -28.437200 0.805789 -0.319979 -4.134147 1.874407 0.048793 -4.753430 1.142370 5.437488 8.028222 -2.182400 2.542600 8.149400 -86.197487 17.976695 0.810550 18.453591 -31.219826 -8.930128 -0.842891 -0.633731 14.552832 -7.125000 0.000000 0.000000 80.570751 -18.743778 -8.659296 -19.129883 30.377122 -9.029776 2.307668 2.663155 -5.691530 7.125000 0.000000 0.000000 
0.213798 19.289507 -24.960213 177.272224 21.363712 -179.671926 -0.233921 -1.808290 -22.780819 -0.848562 9.190197 23.360456 2.840782 5.887775 33.751717 0.002000 -0.285300 -0.783900 3.068352 -3.622007 -18.983733 -1.312184 -10.033328 26.827917 3.977193 -15.683015 18.649456 -2.487000 9.814300 -28.377400 0.787318 -0.142381 -4.151724 1.697154 0.138841 -4.830893 1.129975 5.440684 8.087974 -2.188600 2.550300 8.180800 -86.650004 17.763525 0.946328 18.296597 -31.016980 -8.776543 -0.835752 -0.603337 14.753655 -7.125000 0.000000 0.000000 80.354153 -18.466711 -8.089934 -19.815982 31.031401 -9.504531 2.312319 2.628294 -5.938656 7.125000 0.000000 0.000000 
0.221095 19.306170 -25.002580 177.323622 21.695843 -179.387135 -0.161788 -1.815522 -22.795172 -0.806364 9.197845 23.295584 2.654391 6.312296 33.606043 0.002100 -0.297800 -0.818200 3.009088 -3.275778 -18.840771 -1.190265 -9.898015 26.396067 3.949858 -15.677416 18.787474 -2.473700 9.790000 -28.299200 0.768292 0.035250 -4.169536 1.517919 0.227244 -4.906779 1.115670 5.447289 8.150824 -2.195400 2.558800 8.221800 -87.091670 17.529149 1.057219 18.155381 -30.823754 -8.635030 -0.828705 -0.578269 14.879568 -7.125000 0.000000 0.000000 80.146377 -18.159120 -7.559064 -20.490753 31.652982 -9.975746 2.315466 2.593792 -6.177180 7.125000 0.000000 0.000000 
0.226867 19.323270 -25.044076 177.373315 22.026623 -179.111779 -0.095168 -1.837895 -22.797971 -0.762742 9.202138 23.220906 2.447341 6.778464 33.456354 0.002400 -0.313100 -0.860200 2.953398 -2.984463 -18.754981 -1.086349 -9.785021 26.038324 3.887501 -15.614500 18.977928 -2.455100 9.755800 -28.189600 0.748646 0.212272 -4.186926 1.342033 0.314060 -4.975899 1.105423 5.454831 8.216740 -2.196400 2.567100 8.268700 -87.524705 17.281753 1.155720 18.026403 -30.639219 -8.502935 -0.822763 -0.556901 14.937316 -7.125000 0.000000 0.000000 79.943760 -17.827186 -7.064171 -21.150957 32.242177 -10.441819 2.315602 2.560390 -6.413495 7.125000 0.000000 0.000000 
0.231769 19.340478 -25.085137 177.415991 22.348909 -178.846700 -0.038357 -1.875232 -22.789805 -0.718541 9.204646 23.140955 2.222287 7.275361 33.293952 0.002600 -0.328400 -0.902300 2.899518 -2.757714 -18.715439 -0.995260 -9.686318 25.729374 3.799040 -15.508451 19.202199 -2.433200 9.715400 -28.059800 0.729705 0.383981 -4.203992 1.179502 0.397747 -5.038309 1.096680 5.464773 8.286386 -2.194900 2.576200 8.318500 -87.947951 17.033087 1.255276 17.900917 -30.458170 -8.374973 -0.819143 -0.538630 14.917576 -7.125000 0.000000 0.000000 79.742229 -17.487989 -6.577913 -21.805141 32.810870 -10.908939 2.312793 2.534492 -6.672857 7.125000 0.000000 0.000000 
0.236670 19.357142 -25.125980 177.458613 22.656773 -178.590987 0.016545 -1.924574 -22.770778 -0.674394 9.206441 23.058207 1.987200 7.785876 33.120328 0.002800 -0.343500 -0.943700 2.855584 -2.586994 -18.702914 -0.912088 -9.595509 25.446921 3.704847 -15.392739 19.430405 -2.415400 9.682500 -27.954400 0.713367 0.544758 -4.219403 1.035005 0.475589 -5.088198 1.084453 5.478975 8.356408 -2.198700 2.587200 8.371500 -88.351289 16.780993 1.369035 17.775133 -30.278355 -8.249011 -0.818930 -0.522578 14.814991 -7.125000 0.000000 0.000000 79.538798 -17.129975 -6.110494 -22.437177 33.344744 -11.365111 2.303169 2.508684 -6.896825 7.125000 0.000000 0.000000 
0.242551 19.373152 -25.166931 177.493373 22.945013 -178.343481 0.063756 -1.979397 -22.746420 -0.632539 9.207315 22.974481 1.750054 8.290892 32.935201 0.003000 -0.355000 -0.975300 2.815125 -2.464111 -18.705039 -0.833092 -9.506610 25.172332 3.609575 -15.274926 19.653175 -2.403000 9.659300 -27.880300 0.700398 0.687684 -4.232574 0.917961 0.544888 -5.117977 1.069531 5.502891 8.427304 -2.208400 2.602700 8.430100 -88.733556 16.529372 1.506959 17.656525 -30.109520 -8.130411 -0.821777 -0.509710 14.635791 -7.125000 0.000000 0.000000 79.337543 -16.754149 -5.629428 -23.061095 33.857869 -11.818850 2.287356 2.486749 -7.114094 7.125000 0.000000 0.000000 
0.250175 19.388400 -25.207338 177.530384 23.207180 -178.100211 0.115503 -2.036210 -22.717196 -0.594672 9.205965 22.887457 1.523080 8.769524 32.752349 0.003200 -0.365600 -1.004600 2.786057 -2.361888 -18.701458 -0.755007 -9.417081 24.896885 3.525342 -15.173567 19.850981 -2.391400 9.637700 -27.811400 0.691780 0.815650 -4.244178 0.830621 0.607598 -5.138598 1.050229 5.530624 8.494448 -2.225800 2.620400 8.483800 -89.078687 16.292762 1.707321 17.538270 -29.948611 -8.015184 -0.827660 -0.499805 14.382964 -7.125000 0.000000 0.000000 79.140343 -16.373899 -5.151609 -23.668187 34.345411 -12.264473 2.264678 2.466204 -7.303697 7.125000 0.000000 0.000000 
0.259868 19.402886 -25.246874 177.561048 23.435005 -177.866065 0.165785 -2.094283 -22.685871 -0.563590 9.201240 22.796742 1.314626 9.204823 32.578574 0.003400 -0.374900 -1.030200 2.757784 -2.268789 -18.684644 -0.678280 -9.325416 24.615043 3.458076 -15.099692 20.020752 -2.380700 9.617700 -27.747500 0.686980 0.925211 -4.255038 0.774025 0.662508 -5.153492 1.025602 5.562633 8.559292 -2.251900 2.640600 8.535600 -89.381515 16.078656 1.989995 17.426268 -29.803161 -7.906857 -0.835640 -0.493668 14.064881 -7.125000 0.000000 0.000000 78.961737 -15.996846 -4.639577 -24.285332 34.829848 -12.719149 2.241575 2.457664 -7.548625 7.125000 0.000000 0.000000 
0.271740 19.416827 -25.285647 177.581564 23.622590 -177.645964 0.213400 -2.154222 -22.649984 -0.541619 9.191218 22.699548 1.131727 9.585301 32.422567 0.003600 -0.385500 -1.059300 2.725947 -2.178920 -18.650189 -0.604398 -9.233448 24.330621 3.410987 -15.059006 20.159830 -2.369300 9.596300 -27.679100 0.685327 1.011867 -4.265198 0.744498 0.707324 -5.166379 0.996398 5.599947 8.621105 -2.286100 2.664100 8.584900 -89.630662 15.883572 2.364900 17.317329 -29.669869 -7.803591 -0.844666 -0.490413 13.703564 -7.125000 0.000000 0.000000 78.808431 -15.620689 -4.090191 -24.915312 35.312859 -13.184163 2.219061 2.459412 -7.847369 7.125000 0.000000 0.000000 
0.285681 19.430332 -25.323005 177.609876 23.772477 -177.436249 0.274235 -2.214299 -22.606477 -0.528231 9.174686 22.590820 0.980014 9.908149 32.300577 0.003700 -0.394000 -1.082500 2.704402 -2.075870 -18.591332 -0.533351 -9.144173 24.050824 3.389370 -15.058403 20.258580 -2.354300 9.568000 -27.588800 0.687349 1.078492 -4.273897 0.736707 0.742770 -5.175369 0.966930 5.644750 8.682128 -2.322400 2.691000 8.637500 -89.820451 15.695168 2.835005 17.212126 -29.547474 -7.705233 -0.853010 -0.490646 13.321662 -7.125000 0.000000 0.000000 78.680030 -15.232430 -3.533566 -25.542002 35.780273 -13.647642 2.194661 2.461182 -8.137219 7.125000 0.000000 0.000000 
0.300820 19.443620 -25.359273 177.610364 23.875772 -177.250017 0.315937 -2.279989 -22.559784 -0.526667 9.151559 22.475792 0.857959 10.168048 32.200071 0.003900 -0.403100 -1.107700 2.662266 -1.990286 -18.524758 -0.468392 -9.056468 23.777021 3.376171 -15.071563 20.342046 -2.335600 9.532600 -27.475900 0.688645 1.123404 -4.283723 0.744791 0.768810 -5.192767 0.942126 5.687697 8.741708 -2.355400 2.717600 8.686900 -89.944445 15.529542 3.418456 17.112259 -29.439412 -7.612875 -0.858655 -0.494487 12.956468 -7.125000 0.000000 0.000000 78.586724 -14.857358 -2.955648 -26.185998 36.250665 -14.125405 2.172912 2.470043 -8.465828 7.125000 0.000000 0.000000 
